<?xml version="1.0" encoding="utf-8"?>
<!-- Generator: Adobe Illustrator 19.2.1, SVG Export Plug-In . SVG Version: 6.00 Build 0)  -->
<svg version="1.1" id="Capa_1" xmlns="http://www.w3.org/2000/svg" xmlns:xlink="http://www.w3.org/1999/xlink" x="0px" y="0px"
	 viewBox="0 0 612 792" style="enable-background:new 0 0 612 792;" xml:space="preserve">
<style type="text/css">
	.st0{fill:#FEFEFE;}
	.st1{fill:#434040;}
</style>
<g>
	<path class="st0" d="M739.7,72.8c122.2,0,244.5,0.2,366.7-0.3c12.1,0,16.8,0.7,16.7,15.3c-0.8,142.1-0.8,284.3,0,426.4
		c0.1,14.6-4.6,15.3-16.7,15.3c-122.2-0.5-244.5-0.3-366.7-0.3c-1-11.3,8.8-13,15.6-17c98.8-57.7,198.1-114.5,297.3-171.6
		c8.5-4.9,17-9.7,25-15.2c21.2-14.8,21.4-34.2,0-48.6c-22.7-15.2-46.8-28.1-70.5-41.6C921.8,186.4,836.9,137.2,751.9,88
		C746.1,84.6,738,82.5,739.7,72.8z"/>
	<path class="st1" d="M739.7,72.8c15.8,15.8,36.7,23.9,55.5,34.9c94.3,55.2,189.3,109.4,284,164c27,15.5,26.9,43.1,0,58.6
		C978,388.8,876.6,447,775.7,506c-12.2,7.1-27.2,10.6-36,23.1c-13,0-26.1,0-39.1,0c-14.7-6.7-17.6-19.6-17.8-33.9
		c-0.4-34.3-0.2-68.6-0.2-103c0-93.3-0.1-186.5,0.1-279.8c0-15.8,0.4-31.6,17.9-39.7C713.7,72.8,726.7,72.8,739.7,72.8z"/>
	<path class="st0" d="M700.7,72.8c-8.9,10.7-12.1,22.6-12,36.8c0.5,127.5,0.5,255.1,0,382.6c-0.1,14.3,3.1,26.2,12,36.8
		c-11.7,0-27.8,4.5-33.8-1.3c-5.8-5.6-1.4-21.9-1.4-33.5c0-134.1,0.4-268.1-0.5-402.2c-0.1-16.8,3.9-22.3,20.1-19.4
		C690.2,73.6,695.5,72.8,700.7,72.8z"/>
	<path class="st0" d="M1043.5,301C939.1,361.2,834.9,421.3,729,482.3c0-121.5,0-240.9,0-362.5C834.4,180.5,938.8,240.6,1043.5,301z"
		/>
</g>
</svg>
